<?xml version="1.0" ?><!DOCTYPE svg  PUBLIC '-//W3C//DTD SVG 1.1//EN'  'http://www.w3.org/Graphics/SVG/1.1/DTD/svg11.dtd'><svg enable-background="new 0 0 147 147" height="147px" id="Layer_1" version="1.1" viewBox="0 0 147 147" width="147px" xml:space="preserve" xmlns="http://www.w3.org/2000/svg" xmlns:xlink="http://www.w3.org/1999/xlink"><path d="M73.75,0.5C33.295,0.5,0.5,33.295,0.5,73.75S33.295,147,73.75,147S147,114.205,147,73.75  S114.205,0.5,73.75,0.5z M11.5,73.75c0-21.72,11.189-40.866,28.098-52.007l-1.683,5.183L49.2,27.679l-3.386,14.563l8.625,20.608  l18.929,12.883l3.446,5.152l8.602,0.857l-3.438,12.035l12.896,13.756l-2.577,6.878L88,124.728v9.607  C83.42,135.412,78.654,136,73.75,136C39.425,136,11.5,108.074,11.5,73.75z M93.107,132.902l1.447-7.314l20.796-15.477l10.398-18.915  l-4.259-5.159l-7.718,0.859l-1.71-4.299l-10.313-3.659L91.438,77H81.12l-6.878-11.173l-12.038-4.511l4.299-1.827l8.598-3.492  l5.158,4.273l12.897-25.808L79.4,26.718l-0.859,8.595l-7.739-7.739l4.3-5.16l-20.681-7.826C60.51,12.593,67.003,11.5,73.75,11.5  c34.324,0,62.25,27.925,62.25,62.25C136,101.317,117.98,124.742,93.107,132.902z" fill="#231F20"/></svg>